<svg width="64" height="64" viewBox="0 0 64 64" fill="none" xmlns="http://www.w3.org/2000/svg">
<rect width="64" height="64" rx="12" fill="#F0F0F7"/>
<path d="M43.2444 11H20.2194C14.0923 11 11 13.9742 11 19.8654V51.3949C11 52.1671 11.4148 52.6426 12.3084 52.6426H19.2685C20.1014 52.6426 20.6376 52.1671 20.6376 51.3949V50.1978C20.6376 47.2775 21.8684 45.6858 24.9269 45.379H43.2444C49.9651 45.379 53 42.4654 53 36.0989V20.2801C53 13.9135 49.9651 11 43.2444 11ZM43.3725 33.4214C43.3725 36.8744 42.5902 37.586 38.483 37.586H28.7274C24.6234 37.586 22.0033 38.955 20.6342 41.6325V22.1854C20.6342 19.5079 21.2884 18.793 24.5594 18.793H38.483C42.5902 18.793 43.3725 19.5079 43.3725 22.9576V33.4214Z" fill="#9871F5"/>
</svg>
